<svg xmlns="http://www.w3.org/2000/svg" viewBox="0 0 598.4 598.4"><path d="M288.1 0H312v69.7h-23.9zM139.99 45.646l20.697-11.95 34.85 60.36-20.697 11.95zM34.507 159.213l11.95-20.698 60.36 34.85-11.95 20.698zM0 286.3h69.7v23.9H0zM45.685 458.4l-11.95-20.697 60.36-34.85 11.95 20.697zM159.177 563.854l-20.698-11.95 34.85-60.36 20.697 11.95zM286.3 528.7h23.9v69.7h-23.9zM458.41 552.728l-20.696 11.95-34.85-60.36 20.697-11.95zM563.803 439.128l-11.95 20.698-60.36-34.85 11.95-20.698zM528.7 288.1h69.7V312h-69.7zM552.767 139.98l11.95 20.696-60.36 34.85-11.95-20.697zM439.093 34.558l20.697 11.95-34.85 60.36-20.697-11.95zM297.3 0h5.7v30.2h-5.7zM266.037 1.892l5.668-.596 3.156 30.034-5.667.596zM235.113 6.936l5.575-1.185 6.28 29.54-5.576 1.185zM204.985 15.225l5.42-1.76 9.333 28.722-5.42 1.76zM175.776 26.578l5.207-2.32 12.282 27.59-5.207 2.317zM147.96 41.074l4.936-2.85 15.1 26.153-4.937 2.85zM121.804 58.29l4.61-3.35 17.753 24.43-4.612 3.352zM97.626 78.08l4.236-3.814 20.206 22.442-4.235 3.814zM75.582 100.325l3.813-4.236 22.442 20.206-3.814 4.236zM56.07 124.826l3.35-4.612 24.433 17.752-3.35 4.61zM39.183 151.215l2.85-4.936 26.153 15.1-2.85 4.935zM25.09 179.183l2.32-5.207 27.587 12.283-2.32 5.206zM14.032 208.526l1.76-5.422 28.724 9.332-1.76 5.42zM6.105 238.835l1.185-5.575 29.54 6.28-1.186 5.574zM1.46 269.743l.597-5.67 30.033 3.157-.595 5.67zM0 295.3h30.2v5.7H0zM1.857 332.288l-.595-5.67 30.034-3.155.595 5.67zM6.96 363.223l-1.185-5.576 29.54-6.278 1.184 5.574zM15.24 393.425l-1.762-5.42L42.2 378.67l1.762 5.422zM26.597 422.562l-2.32-5.207 27.59-12.283 2.317 5.207zM40.957 450.387l-2.85-4.936 26.153-15.1 2.85 4.937zM58.186 476.545l-3.35-4.61 24.432-17.753 3.35 4.61zM78.076 500.792l-3.814-4.235 22.44-20.207 3.815 4.235zM100.33 522.772l-4.235-3.813 20.207-22.443 4.236 3.814zM124.846 542.335l-4.61-3.35 17.75-24.433 4.612 3.35zM151.202 559.21l-4.936-2.85 15.1-26.154 4.936 2.85zM179.22 573.284l-5.206-2.318 12.283-27.588 5.206 2.318zM208.43 584.296l-5.422-1.76 9.33-28.724 5.423 1.76zM238.75 592.265l-5.576-1.185 6.278-29.54 5.576 1.186zM269.755 596.93l-5.67-.596 3.157-30.034 5.67.595zM295.3 568.2h5.7v30.2h-5.7zM332.322 596.535l-5.67.595-3.155-30.034 5.67-.595zM363.2 591.42l-5.576 1.186-6.28-29.54 5.576-1.184zM393.41 583.067l-5.42 1.76-9.332-28.722 5.42-1.76zM422.634 571.74l-5.207 2.32-12.282-27.588 5.207-2.32zM450.368 557.376l-4.937 2.85-15.1-26.153 4.938-2.85zM476.51 540.16l-4.613 3.35-17.75-24.432 4.61-3.35zM500.797 520.222l-4.236 3.814-20.206-22.44 4.236-3.815zM522.833 497.957l-3.814 4.236-22.442-20.207 3.814-4.236zM542.314 473.465l-3.35 4.61-24.432-17.75 3.35-4.61zM559.222 447.122l-2.85 4.936-26.153-15.1 2.85-4.936zM573.337 419.162l-2.318 5.207-27.59-12.284 2.32-5.207zM584.298 389.93l-1.76 5.42-28.724-9.332 1.76-5.42zM592.253 359.577l-1.185 5.575-29.538-6.28 1.185-5.574zM596.918 328.572l-.596 5.668-30.033-3.155.594-5.67zM568.2 297.3h30.2v5.7h-30.2zM596.5 266.002l.596 5.67-30.034 3.155-.596-5.67zM591.444 235.137l1.185 5.575-29.54 6.278-1.184-5.575zM583.08 205l1.762 5.42-28.723 9.332-1.762-5.42zM571.67 175.744l2.317 5.207-27.588 12.284-2.32-5.207zM557.346 147.93l2.85 4.935-26.153 15.1-2.85-4.936zM540.137 121.78l3.35 4.613-24.432 17.75-3.35-4.61zM520.292 97.555l3.814 4.235-22.44 20.207-3.815-4.235zM497.963 75.52l4.236 3.814-20.208 22.442-4.236-3.814zM473.545 56.01l4.61 3.35-17.75 24.432-4.612-3.35zM447.11 39.17l4.936 2.85-15.1 26.154-4.937-2.85zM419.16 25.128l5.206 2.32-12.283 27.586-5.207-2.318zM389.927 14.06l5.42 1.762-9.33 28.723-5.422-1.76zM359.588 6.137l5.575 1.185-6.278 29.54-5.575-1.186zM328.583 1.472l5.67.596-3.157 30.034-5.67-.596z"/></svg>