<svg xmlns="http://www.w3.org/2000/svg" viewBox="0 0 598.4 598.4"><path d="M288 0H312v69.7h-24zM140 45.6l20.7-12 34.8 60.4-20.7 12zM34.5 159.2l12-20.7 60.3 35-12 20.7zM0 286.3h69.7v24H0zm45.7 172.1l-12-20.7 60.4-34.8 12 20.6zm113.5 105.5l-20.7-12 34.8-60.4 20.7 12zm127.1-35.2h23.9v69.7h-23.9zm172.1 24l-20.7 12-34.8-60.4 20.7-12zm105.4-113.6l-12 20.7-60.3-34.8 12-20.7zm-35.1-151h69.7V312h-69.7zm24-148.1l12 20.7-60.3 34.8-12-20.7zM439.2 34.6l20.7 12-34.9 60.3-20.7-12zM297.3 0h5.7v30.2h-5.7zM266 1.9l5.7-.6 3.2 30-5.7.6zm-30.9 5l5.6-1.1 6.3 29.5-5.6 1.2zM205 15.2l5.4-1.7 9.3 28.7-5.4 1.7zm-29.2 11.4l5.2-2.3 12.3 27.5-5.2 2.4zM148 41l4.9-2.9L168 64.4l-5 2.8zm-26.2 17.2l4.6-3.4 17.8 24.5-4.6 3.3zM97.6 78l4.3-3.8L122 96.7l-4.3 3.8zm-22 22.2l3.8-4.2 22.4 20.2-3.8 4.2zM56 124.8l3.3-4.6L84 138l-3.4 4.6zm-17 26.4l3-5 26 15.2-2.8 5zm-14 28l2.3-5.2L55 186.3l-2.3 5.2zm-11 29.3l1.7-5.4 28.7 9.3-1.7 5.5zm-8 30.3l1.2-5.5 29.5 6.2-1.2 5.6zm-4.6 31L2 264l30 3.1-.6 5.7zM0 295.2h30.2v5.7H0zm1.9 37l-.6-5.7 30-3.1.6 5.6zm5 31l-1.1-5.7 29.5-6.2 1.2 5.5zm8.3 30.1l-1.7-5.4 28.7-9.3L44 384zm11.4 29.2l-2.3-5.2L51.9 405l2.3 5.2zM41 450.4l-2.9-5 26.2-15 2.8 4.9zm17.2 26.1l-3.4-4.6 24.5-17.7 3.3 4.6zM78 500.8l-3.8-4.2 22.4-20.3 3.8 4.3zm22.2 22l-4.2-3.8 20.2-22.5 4.2 3.8zm24.5 19.5l-4.6-3.3 17.8-24.4 4.6 3.3zm26.4 17l-5-3 15.2-26 4.9 2.8zm28 14L174 571l12.3-27.6 5.2 2.3zm29.2 11l-5.4-1.8 9.3-28.7 5.5 1.8zm30.3 8l-5.5-1.2 6.3-29.6 5.5 1.2zm31 4.6l-5.6-.6 3.1-30 5.7.6zm25.6-28.7h5.7v30.2h-5.7zm37 28.3l-5.6.6-3.2-30 5.7-.6zm30.9-5l-5.6 1.1-6.3-29.5 5.6-1.2zm30.2-8.4l-5.4 1.7-9.3-28.7 5.4-1.8zm29.2-11.4l-5.2 2.4-12.3-27.6 5.3-2.3zm27.8-14.3l-5 2.8-15-26.1 4.9-2.9zm26.1-17.2l-4.6 3.3-17.8-24.4 4.7-3.4zm24.3-20l-4.2 3.8-20.2-22.4 4.2-3.8zm22-22.2l-3.8 4.2-22.4-20.2 3.8-4.3zm19.5-24.5L539 478l-24.5-17.8 3.4-4.6zm17-26.4l-3 5-26-15.1 2.8-5zm14-28l-2.3 5.3-27.6-12.3 2.3-5.2zm11-29.2l-1.8 5.5-28.7-9.4 1.8-5.4zm8-30.3l-1.2 5.6-29.6-6.3 1.2-5.6zm4.6-31l-.6 5.6-30-3.1.6-5.7zm-28.7-31.3h30.2v5.7h-30.2zm28.3-31.3l.6 5.7-30 3.1-.6-5.6zm-5-30.9l1.1 5.6-29.5 6.3-1.2-5.6zM583 205l1.7 5.4-28.7 9.4-1.7-5.5zm-11.4-29.3l2.3 5.3-27.6 12.2-2.3-5zM557.3 148l3 5-26.2 15-2.8-5zm-17.2-26.1l3.4 4.6L519 144l-3.4-4.6zm-20-24l3.8 4.2-22.4 20-4-4.2zm-22.3-22l4 3.7-20 22.5-4.2-3.8zM473.5 56l4.7 3.4-18 24.4-4.6-3.4zm-26.4-16.8l5 3-15 26-5-3zm-28-14l5.3 2.2L412 55l-5.2-2.3zM390 14l5.4 1.7-9.3 28.7-5.4-1.7zm-30.3-8l5.6 1.2-6.3 29.6-5.6-1.2zm-31-4.6l5.7.6-3.2 30-5.7-.6z"/></svg>